# xmcd
#
# Track frame offsets: 
#        182
#        9490
#        17277
#        36400
#        51712
#        69045
#        82217
#        95555
#        114045
#        125167
#        140222
#        156202
#        168822
#        183587
#        194077
#        207357
#        218527
#        237985
#
# Disc length: 3340 seconds
#
# Revision: 2
# Processed by: cddbd v1.5.2PL0 Copyright (c) Steve Scherf et al.
# Submitted via: ExactAudioCopy v0.99pb5
#
DISCID=030d0a12
DTITLE=Fausto Papetti - More Feelings Again
DYEAR=1995
DGENRE=Blues
TTITLE0=You don't have to say You love me
TTITLE1=Say Say Say
TTITLE2=the Goldest of My Life
TTITLE3=Do You Really Want to Hurt me
TTITLE4=A Song for You
TTITLE5=Love Story
TTITLE6=A Whiter Shade of Pale
TTITLE7=Blade Runner Blues
TTITLE8=People
TTITLE9=This Guy's in Love with You
TTITLE10=Alone Again (Naturally)
TTITLE11=Every Breath You Take
TTITLE12=September Morn'
TTITLE13=Juliet
TTITLE14=Run to Me
TTITLE15=Smoke Gets in Your Eyes
TTITLE16=Tragedy
TTITLE17=Love me Tender
EXTD=YEAR: 1995
EXTT0=
EXTT1=
EXTT2=
EXTT3=
EXTT4=
EXTT5=
EXTT6=
EXTT7=
EXTT8=
EXTT9=
EXTT10=
EXTT11=
EXTT12=
EXTT13=
EXTT14=
EXTT15=
EXTT16=
EXTT17=
PLAYORDER=
